<svg xmlns="http://www.w3.org/2000/svg" xmlns:xlink="http://www.w3.org/1999/xlink" version="1.1" class="marks" width="1149" height="262" viewBox="0 0 1149 262"><rect width="1149" height="262" fill="white"/><g fill="none" stroke-miterlimit="10" transform="translate(47,25)"><g class="mark-group role-frame root" role="graphics-object" aria-roledescription="group mark container"><g transform="translate(0,0)"><path class="background" aria-hidden="true" d="M0.5,0.5h1094v200h-1094Z" stroke="#ddd"/><g><g class="mark-group role-axis" aria-hidden="true"><g transform="translate(0.5,200.5)"><path class="background" aria-hidden="true" d="M0,0h0v0h0Z" pointer-events="none"/><g><g class="mark-rule role-axis-grid" pointer-events="none"><line transform="translate(0,-200)" x2="0" y2="200" stroke="#ddd" stroke-width="1" opacity="1"/><line transform="translate(55,-200)" x2="0" y2="200" stroke="#ddd" stroke-width="1" opacity="1"/><line transform="translate(109,-200)" x2="0" y2="200" stroke="#ddd" stroke-width="1" opacity="1"/><line transform="translate(164,-200)" x2="0" y2="200" stroke="#ddd" stroke-width="1" opacity="1"/><line transform="translate(219,-200)" x2="0" y2="200" stroke="#ddd" stroke-width="1" opacity="1"/><line transform="translate(274,-200)" x2="0" y2="200" stroke="#ddd" stroke-width="1" opacity="1"/><line transform="translate(328,-200)" x2="0" y2="200" stroke="#ddd" stroke-width="1" opacity="1"/><line transform="translate(383,-200)" x2="0" y2="200" stroke="#ddd" stroke-width="1" opacity="1"/><line transform="translate(438,-200)" x2="0" y2="200" stroke="#ddd" stroke-width="1" opacity="1"/><line transform="translate(492,-200)" x2="0" y2="200" stroke="#ddd" stroke-width="1" opacity="1"/><line transform="translate(547,-200)" x2="0" y2="200" stroke="#ddd" stroke-width="1" opacity="1"/><line transform="translate(602,-200)" x2="0" y2="200" stroke="#ddd" stroke-width="1" opacity="1"/><line transform="translate(656,-200)" x2="0" y2="200" stroke="#ddd" stroke-width="1" opacity="1"/><line transform="translate(711,-200)" x2="0" y2="200" stroke="#ddd" stroke-width="1" opacity="1"/><line transform="translate(766,-200)" x2="0" y2="200" stroke="#ddd" stroke-width="1" opacity="1"/><line transform="translate(821,-200)" x2="0" y2="200" stroke="#ddd" stroke-width="1" opacity="1"/><line transform="translate(875,-200)" x2="0" y2="200" stroke="#ddd" stroke-width="1" opacity="1"/><line transform="translate(930,-200)" x2="0" y2="200" stroke="#ddd" stroke-width="1" opacity="1"/><line transform="translate(985,-200)" x2="0" y2="200" stroke="#ddd" stroke-width="1" opacity="1"/><line transform="translate(1039,-200)" x2="0" y2="200" stroke="#ddd" stroke-width="1" opacity="1"/><line transform="translate(1094,-200)" x2="0" y2="200" stroke="#ddd" stroke-width="1" opacity="1"/></g></g><path class="foreground" aria-hidden="true" d="" pointer-events="none" display="none"/></g></g><g class="mark-group role-axis" aria-hidden="true"><g transform="translate(0.5,0.5)"><path class="background" aria-hidden="true" d="M0,0h0v0h0Z" pointer-events="none"/><g><g class="mark-rule role-axis-grid" pointer-events="none"><line transform="translate(0,182)" x2="1094" y2="0" stroke="#ddd" stroke-width="1" opacity="1"/><line transform="translate(0,145)" x2="1094" y2="0" stroke="#ddd" stroke-width="1" opacity="1"/><line transform="translate(0,109)" x2="1094" y2="0" stroke="#ddd" stroke-width="1" opacity="1"/><line transform="translate(0,73)" x2="1094" y2="0" stroke="#ddd" stroke-width="1" opacity="1"/><line transform="translate(0,36)" x2="1094" y2="0" stroke="#ddd" stroke-width="1" opacity="1"/><line transform="translate(0,0)" x2="1094" y2="0" stroke="#ddd" stroke-width="1" opacity="1"/></g></g><path class="foreground" aria-hidden="true" d="" pointer-events="none" display="none"/></g></g><g class="mark-group role-axis" role="graphics-symbol" aria-roledescription="axis" aria-label="X-axis titled 'epoch' for a linear scale with values from 1.0 to 3.0"><g transform="translate(0.5,200.5)"><path class="background" aria-hidden="true" d="M0,0h0v0h0Z" pointer-events="none"/><g><g class="mark-rule role-axis-tick" pointer-events="none"><line transform="translate(0,0)" x2="0" y2="5" stroke="#888" stroke-width="1" opacity="1"/><line transform="translate(55,0)" x2="0" y2="5" stroke="#888" stroke-width="1" opacity="1"/><line transform="translate(109,0)" x2="0" y2="5" stroke="#888" stroke-width="1" opacity="1"/><line transform="translate(164,0)" x2="0" y2="5" stroke="#888" stroke-width="1" opacity="1"/><line transform="translate(219,0)" x2="0" y2="5" stroke="#888" stroke-width="1" opacity="1"/><line transform="translate(274,0)" x2="0" y2="5" stroke="#888" stroke-width="1" opacity="1"/><line transform="translate(328,0)" x2="0" y2="5" stroke="#888" stroke-width="1" opacity="1"/><line transform="translate(383,0)" x2="0" y2="5" stroke="#888" stroke-width="1" opacity="1"/><line transform="translate(438,0)" x2="0" y2="5" stroke="#888" stroke-width="1" opacity="1"/><line transform="translate(492,0)" x2="0" y2="5" stroke="#888" stroke-width="1" opacity="1"/><line transform="translate(547,0)" x2="0" y2="5" stroke="#888" stroke-width="1" opacity="1"/><line transform="translate(602,0)" x2="0" y2="5" stroke="#888" stroke-width="1" opacity="1"/><line transform="translate(656,0)" x2="0" y2="5" stroke="#888" stroke-width="1" opacity="1"/><line transform="translate(711,0)" x2="0" y2="5" stroke="#888" stroke-width="1" opacity="1"/><line transform="translate(766,0)" x2="0" y2="5" stroke="#888" stroke-width="1" opacity="1"/><line transform="translate(821,0)" x2="0" y2="5" stroke="#888" stroke-width="1" opacity="1"/><line transform="translate(875,0)" x2="0" y2="5" stroke="#888" stroke-width="1" opacity="1"/><line transform="translate(930,0)" x2="0" y2="5" stroke="#888" stroke-width="1" opacity="1"/><line transform="translate(985,0)" x2="0" y2="5" stroke="#888" stroke-width="1" opacity="1"/><line transform="translate(1039,0)" x2="0" y2="5" stroke="#888" stroke-width="1" opacity="1"/><line transform="translate(1094,0)" x2="0" y2="5" stroke="#888" stroke-width="1" opacity="1"/></g><g class="mark-text role-axis-label" pointer-events="none"><text text-anchor="start" transform="translate(0,15)" font-family="sans-serif" font-size="10px" fill="#000" opacity="1">1.0</text><text text-anchor="middle" transform="translate(54.700000000000045,15)" font-family="sans-serif" font-size="10px" fill="#000" opacity="1">1.1</text><text text-anchor="middle" transform="translate(109.39999999999998,15)" font-family="sans-serif" font-size="10px" fill="#000" opacity="1">1.2</text><text text-anchor="middle" transform="translate(164.10000000000002,15)" font-family="sans-serif" font-size="10px" fill="#000" opacity="1">1.3</text><text text-anchor="middle" transform="translate(218.79999999999995,15)" font-family="sans-serif" font-size="10px" fill="#000" opacity="1">1.4</text><text text-anchor="middle" transform="translate(273.5,15)" font-family="sans-serif" font-size="10px" fill="#000" opacity="1">1.5</text><text text-anchor="middle" transform="translate(328.20000000000005,15)" font-family="sans-serif" font-size="10px" fill="#000" opacity="1">1.6</text><text text-anchor="middle" transform="translate(382.9,15)" font-family="sans-serif" font-size="10px" fill="#000" opacity="1">1.7</text><text text-anchor="middle" transform="translate(437.6,15)" font-family="sans-serif" font-size="10px" fill="#000" opacity="1">1.8</text><text text-anchor="middle" transform="translate(492.29999999999995,15)" font-family="sans-serif" font-size="10px" fill="#000" opacity="1">1.9</text><text text-anchor="middle" transform="translate(547,15)" font-family="sans-serif" font-size="10px" fill="#000" opacity="1">2.0</text><text text-anchor="middle" transform="translate(601.7,15)" font-family="sans-serif" font-size="10px" fill="#000" opacity="1">2.1</text><text text-anchor="middle" transform="translate(656.4000000000001,15)" font-family="sans-serif" font-size="10px" fill="#000" opacity="1">2.2</text><text text-anchor="middle" transform="translate(711.0999999999999,15)" font-family="sans-serif" font-size="10px" fill="#000" opacity="1">2.3</text><text text-anchor="middle" transform="translate(765.8,15)" font-family="sans-serif" font-size="10px" fill="#000" opacity="1">2.4</text><text text-anchor="middle" transform="translate(820.5,15)" font-family="sans-serif" font-size="10px" fill="#000" opacity="1">2.5</text><text text-anchor="middle" transform="translate(875.2,15)" font-family="sans-serif" font-size="10px" fill="#000" opacity="1">2.6</text><text text-anchor="middle" transform="translate(929.9000000000001,15)" font-family="sans-serif" font-size="10px" fill="#000" opacity="1">2.7</text><text text-anchor="middle" transform="translate(984.5999999999999,15)" font-family="sans-serif" font-size="10px" fill="#000" opacity="1">2.8</text><text text-anchor="middle" transform="translate(1039.3,15)" font-family="sans-serif" font-size="10px" fill="#000" opacity="1">2.9</text><text text-anchor="end" transform="translate(1094,15)" font-family="sans-serif" font-size="10px" fill="#000" opacity="1">3.0</text></g><g class="mark-rule role-axis-domain" pointer-events="none"><line transform="translate(0,0)" x2="1094" y2="0" stroke="#888" stroke-width="1" opacity="1"/></g><g class="mark-text role-axis-title" pointer-events="none"><text text-anchor="middle" transform="translate(547,30)" font-family="sans-serif" font-size="11px" font-weight="bold" fill="#000" opacity="1">epoch</text></g></g><path class="foreground" aria-hidden="true" d="" pointer-events="none" display="none"/></g></g><g class="mark-group role-axis" role="graphics-symbol" aria-roledescription="axis" aria-label="Y-axis titled 'accuracy' for a linear scale with values from 0.77 to 0.88"><g transform="translate(0.5,0.5)"><path class="background" aria-hidden="true" d="M0,0h0v0h0Z" pointer-events="none"/><g><g class="mark-rule role-axis-tick" pointer-events="none"><line transform="translate(0,182)" x2="-5" y2="0" stroke="#888" stroke-width="1" opacity="1"/><line transform="translate(0,145)" x2="-5" y2="0" stroke="#888" stroke-width="1" opacity="1"/><line transform="translate(0,109)" x2="-5" y2="0" stroke="#888" stroke-width="1" opacity="1"/><line transform="translate(0,73)" x2="-5" y2="0" stroke="#888" stroke-width="1" opacity="1"/><line transform="translate(0,36)" x2="-5" y2="0" stroke="#888" stroke-width="1" opacity="1"/><line transform="translate(0,0)" x2="-5" y2="0" stroke="#888" stroke-width="1" opacity="1"/></g><g class="mark-text role-axis-label" pointer-events="none"><text text-anchor="end" transform="translate(-7,184.81818181818178)" font-family="sans-serif" font-size="10px" fill="#000" opacity="1">0.78</text><text text-anchor="end" transform="translate(-7,148.4545454545454)" font-family="sans-serif" font-size="10px" fill="#000" opacity="1">0.80</text><text text-anchor="end" transform="translate(-7,112.09090909090922)" font-family="sans-serif" font-size="10px" fill="#000" opacity="1">0.82</text><text text-anchor="end" transform="translate(-7,75.72727272727279)" font-family="sans-serif" font-size="10px" fill="#000" opacity="1">0.84</text><text text-anchor="end" transform="translate(-7,39.363636363636395)" font-family="sans-serif" font-size="10px" fill="#000" opacity="1">0.86</text><text text-anchor="end" transform="translate(-7,3)" font-family="sans-serif" font-size="10px" fill="#000" opacity="1">0.88</text></g><g class="mark-rule role-axis-domain" pointer-events="none"><line transform="translate(0,200)" x2="0" y2="-200" stroke="#888" stroke-width="1" opacity="1"/></g><g class="mark-text role-axis-title" pointer-events="none"><text text-anchor="middle" transform="translate(-30.462890625,100) rotate(-90) translate(0,-2)" font-family="sans-serif" font-size="11px" font-weight="bold" fill="#000" opacity="1">accuracy</text></g></g><path class="foreground" aria-hidden="true" d="" pointer-events="none" display="none"/></g></g><g class="mark-group role-scope layer_0_pathgroup" role="graphics-object" aria-roledescription="group mark container"><g transform="translate(0,0)"><path class="background" aria-hidden="true" d="M0,0h1094v200h-1094Z"/><g><g class="mark-line role-mark layer_0_marks" role="graphics-object" aria-roledescription="line mark container"><path aria-label="epoch: 1; accuracy: 0.789333343506; rev: daf5031" role="graphics-symbol" aria-roledescription="line mark" d="M0,164.84846635298297L547,33.75758691267534L1094,5.545408075506053" stroke="#16cae8" stroke-width="2"/></g></g><path class="foreground" aria-hidden="true" d="" display="none"/></g><g transform="translate(0,0)"><path class="background" aria-hidden="true" d="M0,0h1094v200h-1094Z"/><g><g class="mark-line role-mark layer_0_marks" role="graphics-object" aria-roledescription="line mark container"><path aria-label="epoch: 1; accuracy: 0.788550019264; rev: 60f2baf" role="graphics-symbol" aria-roledescription="line mark" d="M0,166.2726922468706L547,33.090881867842256L1094,4.030258005315623" stroke="#a855f7" stroke-width="2"/></g></g><path class="foreground" aria-hidden="true" d="" display="none"/></g><g transform="translate(0,0)"><path class="background" aria-hidden="true" d="M0,0h1094v200h-1094Z"/><g><g class="mark-line role-mark layer_0_marks" role="graphics-object" aria-roledescription="line mark container"><path aria-label="epoch: 1; accuracy: 0.788550019264; rev: bef6549" role="graphics-symbol" aria-roledescription="line mark" d="M0,166.2726922468706L547,33.090881867842256L1094,4.030258005315623" stroke="#ef4444" stroke-width="2"/></g></g><path class="foreground" aria-hidden="true" d="" display="none"/></g><g transform="translate(0,0)"><path class="background" aria-hidden="true" d="M0,0h1094v200h-1094Z"/><g><g class="mark-line role-mark layer_0_marks" role="graphics-object" aria-roledescription="line mark container"><path aria-label="epoch: 1; accuracy: 0.770683348179; rev: 82f40ce" role="graphics-symbol" aria-roledescription="line mark" d="M0,198.7575487657027L547,53.393957831642865L1094,18.727246197787206" stroke="#22c55e" stroke-width="2"/></g></g><path class="foreground" aria-hidden="true" d="" display="none"/></g><g transform="translate(0,0)"><path class="background" aria-hidden="true" d="M0,0h1094v200h-1094Z"/><g><g class="mark-line role-mark layer_0_marks" role="graphics-object" aria-roledescription="line mark container"><path aria-label="epoch: 1; accuracy: 0.770683348179; rev: 241465d" role="graphics-symbol" aria-roledescription="line mark" d="M0,198.7575487657027L547,53.393957831642865L1094,18.727246197787206" stroke="#3b82f6" stroke-width="2"/></g></g><path class="foreground" aria-hidden="true" d="" display="none"/></g><g transform="translate(0,0)"><path class="background" aria-hidden="true" d="M0,0h1094v200h-1094Z"/><g><g class="mark-line role-mark layer_0_marks" role="graphics-object" aria-roledescription="line mark container"><path aria-label="epoch: 1; accuracy: 0.770683348179; rev: 13-gh-action" role="graphics-symbol" aria-roledescription="line mark" d="M0,198.7575487657027L547,53.393957831642865L1094,18.727246197787206" stroke="#d946ef" stroke-width="2"/></g></g><path class="foreground" aria-hidden="true" d="" display="none"/></g><g transform="translate(0,0)"><path class="background" aria-hidden="true" d="M0,0h1094v200h-1094Z"/><g><g class="mark-line role-mark layer_0_marks" role="graphics-object" aria-roledescription="line mark container"><path aria-label="epoch: 1; accuracy: 0.770683348179; rev: 12-high-dropout-experiment, high-dropout-experiment" role="graphics-symbol" aria-roledescription="line mark" d="M0,198.7575487657027L547,53.393957831642865L1094,18.727246197787206" stroke="#f97316" stroke-width="2"/></g></g><path class="foreground" aria-hidden="true" d="" display="none"/></g></g><g class="mark-symbol role-mark layer_1_marks" role="graphics-object" aria-roledescription="symbol mark container"><path aria-label="epoch: 1; accuracy: 0.789333343506; rev: daf5031" role="graphics-symbol" aria-roledescription="point" transform="translate(0,164.84846635298297)" d="M2.7386127875258306,0A2.7386127875258306,2.7386127875258306,0,1,1,-2.7386127875258306,0A2.7386127875258306,2.7386127875258306,0,1,1,2.7386127875258306,0" fill="#16cae8" stroke-width="2" opacity="1"/><path aria-label="epoch: 2; accuracy: 0.861433327198; rev: daf5031" role="graphics-symbol" aria-roledescription="point" transform="translate(547,33.75758691267534)" d="M2.7386127875258306,0A2.7386127875258306,2.7386127875258306,0,1,1,-2.7386127875258306,0A2.7386127875258306,2.7386127875258306,0,1,1,2.7386127875258306,0" fill="#16cae8" stroke-width="2" opacity="1"/><path aria-label="epoch: 3; accuracy: 0.876950025558; rev: daf5031" role="graphics-symbol" aria-roledescription="point" transform="translate(1094,5.545408075506053)" d="M2.7386127875258306,0A2.7386127875258306,2.7386127875258306,0,1,1,-2.7386127875258306,0A2.7386127875258306,2.7386127875258306,0,1,1,2.7386127875258306,0" fill="#16cae8" stroke-width="2" opacity="1"/><path aria-label="epoch: 1; accuracy: 0.788550019264; rev: 60f2baf" role="graphics-symbol" aria-roledescription="point" transform="translate(0,166.2726922468706)" d="M2.7386127875258306,0A2.7386127875258306,2.7386127875258306,0,1,1,-2.7386127875258306,0A2.7386127875258306,2.7386127875258306,0,1,1,2.7386127875258306,0" fill="#a855f7" stroke-width="2" opacity="1"/><path aria-label="epoch: 2; accuracy: 0.861800014973; rev: 60f2baf" role="graphics-symbol" aria-roledescription="point" transform="translate(547,33.090881867842256)" d="M2.7386127875258306,0A2.7386127875258306,2.7386127875258306,0,1,1,-2.7386127875258306,0A2.7386127875258306,2.7386127875258306,0,1,1,2.7386127875258306,0" fill="#a855f7" stroke-width="2" opacity="1"/><path aria-label="epoch: 3; accuracy: 0.877783358097; rev: 60f2baf" role="graphics-symbol" aria-roledescription="point" transform="translate(1094,4.030258005315623)" d="M2.7386127875258306,0A2.7386127875258306,2.7386127875258306,0,1,1,-2.7386127875258306,0A2.7386127875258306,2.7386127875258306,0,1,1,2.7386127875258306,0" fill="#a855f7" stroke-width="2" opacity="1"/><path aria-label="epoch: 1; accuracy: 0.788550019264; rev: bef6549" role="graphics-symbol" aria-roledescription="point" transform="translate(0,166.2726922468706)" d="M2.7386127875258306,0A2.7386127875258306,2.7386127875258306,0,1,1,-2.7386127875258306,0A2.7386127875258306,2.7386127875258306,0,1,1,2.7386127875258306,0" fill="#ef4444" stroke-width="2" opacity="1"/><path aria-label="epoch: 2; accuracy: 0.861800014973; rev: bef6549" role="graphics-symbol" aria-roledescription="point" transform="translate(547,33.090881867842256)" d="M2.7386127875258306,0A2.7386127875258306,2.7386127875258306,0,1,1,-2.7386127875258306,0A2.7386127875258306,2.7386127875258306,0,1,1,2.7386127875258306,0" fill="#ef4444" stroke-width="2" opacity="1"/><path aria-label="epoch: 3; accuracy: 0.877783358097; rev: bef6549" role="graphics-symbol" aria-roledescription="point" transform="translate(1094,4.030258005315623)" d="M2.7386127875258306,0A2.7386127875258306,2.7386127875258306,0,1,1,-2.7386127875258306,0A2.7386127875258306,2.7386127875258306,0,1,1,2.7386127875258306,0" fill="#ef4444" stroke-width="2" opacity="1"/><path aria-label="epoch: 1; accuracy: 0.770683348179; rev: 82f40ce" role="graphics-symbol" aria-roledescription="point" transform="translate(0,198.7575487657027)" d="M2.7386127875258306,0A2.7386127875258306,2.7386127875258306,0,1,1,-2.7386127875258306,0A2.7386127875258306,2.7386127875258306,0,1,1,2.7386127875258306,0" fill="#22c55e" stroke-width="2" opacity="1"/><path aria-label="epoch: 2; accuracy: 0.850633323193; rev: 82f40ce" role="graphics-symbol" aria-roledescription="point" transform="translate(547,53.393957831642865)" d="M2.7386127875258306,0A2.7386127875258306,2.7386127875258306,0,1,1,-2.7386127875258306,0A2.7386127875258306,2.7386127875258306,0,1,1,2.7386127875258306,0" fill="#22c55e" stroke-width="2" opacity="1"/><path aria-label="epoch: 3; accuracy: 0.869700014591; rev: 82f40ce" role="graphics-symbol" aria-roledescription="point" transform="translate(1094,18.727246197787206)" d="M2.7386127875258306,0A2.7386127875258306,2.7386127875258306,0,1,1,-2.7386127875258306,0A2.7386127875258306,2.7386127875258306,0,1,1,2.7386127875258306,0" fill="#22c55e" stroke-width="2" opacity="1"/><path aria-label="epoch: 1; accuracy: 0.770683348179; rev: 241465d" role="graphics-symbol" aria-roledescription="point" transform="translate(0,198.7575487657027)" d="M2.7386127875258306,0A2.7386127875258306,2.7386127875258306,0,1,1,-2.7386127875258306,0A2.7386127875258306,2.7386127875258306,0,1,1,2.7386127875258306,0" fill="#3b82f6" stroke-width="2" opacity="1"/><path aria-label="epoch: 2; accuracy: 0.850633323193; rev: 241465d" role="graphics-symbol" aria-roledescription="point" transform="translate(547,53.393957831642865)" d="M2.7386127875258306,0A2.7386127875258306,2.7386127875258306,0,1,1,-2.7386127875258306,0A2.7386127875258306,2.7386127875258306,0,1,1,2.7386127875258306,0" fill="#3b82f6" stroke-width="2" opacity="1"/><path aria-label="epoch: 3; accuracy: 0.869700014591; rev: 241465d" role="graphics-symbol" aria-roledescription="point" transform="translate(1094,18.727246197787206)" d="M2.7386127875258306,0A2.7386127875258306,2.7386127875258306,0,1,1,-2.7386127875258306,0A2.7386127875258306,2.7386127875258306,0,1,1,2.7386127875258306,0" fill="#3b82f6" stroke-width="2" opacity="1"/><path aria-label="epoch: 1; accuracy: 0.770683348179; rev: 13-gh-action" role="graphics-symbol" aria-roledescription="point" transform="translate(0,198.7575487657027)" d="M2.7386127875258306,0A2.7386127875258306,2.7386127875258306,0,1,1,-2.7386127875258306,0A2.7386127875258306,2.7386127875258306,0,1,1,2.7386127875258306,0" fill="#d946ef" stroke-width="2" opacity="1"/><path aria-label="epoch: 2; accuracy: 0.850633323193; rev: 13-gh-action" role="graphics-symbol" aria-roledescription="point" transform="translate(547,53.393957831642865)" d="M2.7386127875258306,0A2.7386127875258306,2.7386127875258306,0,1,1,-2.7386127875258306,0A2.7386127875258306,2.7386127875258306,0,1,1,2.7386127875258306,0" fill="#d946ef" stroke-width="2" opacity="1"/><path aria-label="epoch: 3; accuracy: 0.869700014591; rev: 13-gh-action" role="graphics-symbol" aria-roledescription="point" transform="translate(1094,18.727246197787206)" d="M2.7386127875258306,0A2.7386127875258306,2.7386127875258306,0,1,1,-2.7386127875258306,0A2.7386127875258306,2.7386127875258306,0,1,1,2.7386127875258306,0" fill="#d946ef" stroke-width="2" opacity="1"/><path aria-label="epoch: 1; accuracy: 0.770683348179; rev: 12-high-dropout-experiment, high-dropout-experiment" role="graphics-symbol" aria-roledescription="point" transform="translate(0,198.7575487657027)" d="M2.7386127875258306,0A2.7386127875258306,2.7386127875258306,0,1,1,-2.7386127875258306,0A2.7386127875258306,2.7386127875258306,0,1,1,2.7386127875258306,0" fill="#f97316" stroke-width="2" opacity="1"/><path aria-label="epoch: 2; accuracy: 0.850633323193; rev: 12-high-dropout-experiment, high-dropout-experiment" role="graphics-symbol" aria-roledescription="point" transform="translate(547,53.393957831642865)" d="M2.7386127875258306,0A2.7386127875258306,2.7386127875258306,0,1,1,-2.7386127875258306,0A2.7386127875258306,2.7386127875258306,0,1,1,2.7386127875258306,0" fill="#f97316" stroke-width="2" opacity="1"/><path aria-label="epoch: 3; accuracy: 0.869700014591; rev: 12-high-dropout-experiment, high-dropout-experiment" role="graphics-symbol" aria-roledescription="point" transform="translate(1094,18.727246197787206)" d="M2.7386127875258306,0A2.7386127875258306,2.7386127875258306,0,1,1,-2.7386127875258306,0A2.7386127875258306,2.7386127875258306,0,1,1,2.7386127875258306,0" fill="#f97316" stroke-width="2" opacity="1"/></g></g><path class="foreground" aria-hidden="true" d="" display="none"/></g></g></g></svg>